# AST/ASF file generated using VICON BodyLanguage
# -----------------------------------------------
:version 1.10
:name VICON
:units
  mass 1.0
  length 0.45
  angle deg
:documentation
   .ast/.asf automatically generated from VICON data using
   VICON BodyBuilder and BodyLanguage model FoxedUp or BRILLIANT.MOD
:root
   order TX TY TZ RX RY RZ
   axis XYZ
   position 0 0 0  
   orientation 0 0 0 
:bonedata
  begin
     id 1 
     name lhipjoint
     direction 0.521689 -0.742065 0.420928 
     length 2.47002 
     axis 0 0 0  XYZ
  end
  begin
     id 2 
     name lfemur
     direction 0.34202 -0.939693 0  
     length 7.24654  
     axis 0 0 20  XYZ
    dof rx ry rz
    limits (-160.0 20.0)
           (-70.0 70.0)
           (-60.0 70.0)
  end
  begin
     id 3 
     name ltibia
     direction 0.34202 -0.939693 0   
     length 8.04849   
     axis 0 0 20   XYZ
    dof rx
    limits (-10.0 170.0)
  end
  begin
     id 4 
     name lfoot
     direction 0.0745411 -0.2048 0.975961   
     length 1.72367   
     axis -90 7.62852e-016 20   XYZ
    dof rx rz
    limits (-45.0 90.0)
           (-70.0 20.0)
  end
  begin
     id 5 
     name ltoes
     direction 1.53556e-011 -4.21901e-011 1   
     length 0.87311   
     axis -90 7.62852e-016 20   XYZ
    dof rx
    limits (-90.0 20.0)
  end
  begin
     id 6 
     name rhipjoint
     direction -0.52849 -0.738415 0.418857   
     length 2.48223  
     axis 0 0 0  XYZ 
  end
  begin
     id 7 
     name rfemur
     direction -0.34202 -0.939693 0   
     length 7.15571   
     axis 0 0 -20   XYZ
    dof rx ry rz
    limits (-160.0 20.0)
           (-70.0 70.0)
           (-70.0 60.0)
  end
  begin
     id 8 
     name rtibia
     direction -0.34202 -0.939693 0   
     length 7.81659   
     axis 0 0 -20   XYZ
    dof rx
    limits (-10.0 170.0)
 end
 begin
     id 9 
     name rfoot
     direction -0.0917348 -0.252039 0.963359   
     length 1.84382  
     axis -90 -7.62852e-016 -20   XYZ
    dof rx rz
    limits (-45.0 90.0)
           (-20.0 70.0)
  end
  begin
     id 10 
     name rtoes
     direction -1.53551e-011 -4.21879e-011 1   
     length 0.927771   
     axis -90 -7.62852e-016 -20   XYZ
    dof rx
    limits (-90.0 20.0)
  end
  begin
     id 11 
     name lowerback
     direction 0.00583058 0.999822 0.0179296   
     length 2.1429   
     axis 0 0 0   XYZ
    dof rx ry rz
    limits (-20.0 45.0)
           (-30.0 30.0)
           (-30.0 30.0)
  end
  begin
     id 12 
     name upperback
     direction -0.0137999 0.999752 -0.0175071   
     length 2.14252   
     axis 0 0 0   XYZ
    dof rx ry rz
    limits (-20.0 45.0)
           (-30.0 30.0)
           (-30.0 30.0)
  end
  begin
     id 13 
     name thorax
     direction -0.0158036 0.99955 -0.0254909   
     length 2.1383   
     axis 0 0 0   XYZ
    dof rx ry rz
    limits (-20.0 45.0)
           (-30.0 30.0)
           (-30.0 30.0)
  end
  begin
     id 14 
     name lowerneck
     direction -0.0101179 0.999403 -0.0330262   
     length 1.65808   
     axis 0 0 0   XYZ
    dof rx ry rz
    limits (-20.0 45.0)
           (-30.0 30.0)
           (-30.0 30.0)
  end
  begin
     id 15 
     name upperneck
     direction 0.0497734 0.995978 -0.074501   
     length 1.5897   
     axis 0 0 0   XYZ
    dof rx ry rz
    limits (-20.0 45.0)
           (-30.0 30.0)
           (-30.0 30.0)
  end
  begin
     id 16
     name head
     direction 0.0189524 0.999519 -0.0245438  
     length 1.74024  
     axis 0 0 0   XYZ
    dof rx ry rz
    limits (-20.0 45.0)
           (-30.0 30.0)
           (-30.0 30.0)
  end
  begin
     id 17 
     name lclavicle
     direction 0.945604 0.324422 0.0241537  
     length 3.59089  
     axis 0 0 0   XYZ
    dof ry rz
    limits (-20.0 10.0)
           (0.0 20.0)
  end
  begin
     id 18 
     name lhumerus
     direction 1 -4.48964e-011 -2.63524e-027   
     length 5.2391   
     axis 180 -30 -90   XYZ
    dof rx ry rz
    limits (-60.0 90.0)
           (-90.0 90.0)
           (-90.0 90.0)
  end
  begin
     id 19
     name lradius
     direction 1 -4.48969e-011 3.86978e-028   
     length 3.31467   
     axis 180 -30 -90   XYZ
    dof rx
    limits (-10.0 170.0)
  end
  begin
     id 20
     name lwrist
     direction 1 -4.48963e-011 7.20928e-028   
     length 1.65734   
     axis -5.52449e-016 90 90   XYZ
    dof ry
    limits (-180.0 0.0)
 end
  begin
     id 21 
     name lhand
     direction 1 -4.48964e-011 1.44186e-027   
     length 0.9659   
     axis -9.20027e-016 90 90   XYZ
    dof rx rz
    limits (-90.0 90.0)
           (-45.0 45.0)
  end
  begin
     id 22 
     name lfingers
     direction 1 -4.48965e-011 2.88371e-027   
     length 0.778733   
     axis -1.84005e-015 90 90   XYZ
    dof rx
    limits (0.0 90.0)
  end
  begin
     id 23
     name lthumb
     direction 0.707107 -6.34931e-011 0.707107   
     length 1.11811   
     axis -90 45 2.85299e-015   XYZ
    dof rx rz
    limits (-45.0 45.0)
           (-45.0 45.0)
  end
  begin
     id 24 
     name rclavicle
     direction -0.923762 0.370785 0.0958234   
     length 3.54196  
     axis 0 0 0   XYZ 
    dof ry rz
    limits (-10.0 20.0)
           (-20.0 0.0)
  end
  begin
     id 25 
     name rhumerus
     direction -1 -4.48966e-011 1.18702e-017  
     length 5.30252   
     axis 180 30 90   XYZ
    dof rx ry rz
    limits (-90.0 60.0)
           (-90.0 90.0)
           (-90.0 90.0)
  end
  begin
     id 26 
     name rradius
     direction -1 -4.48966e-011 4.46736e-027   
     length 3.67875   
     axis 180 30 90   XYZ
    dof rx
    limits (-10.0 170.0)
  end
  begin
     id 27 
     name rwrist
     direction -1 -4.48966e-011 7.20928e-028   
     length 1.83937   
     axis -5.52449e-016 -90 -90   XYZ
    dof ry
    limits (-180.0 0.0)
  end
  begin
     id 28
     name rhand
     direction -1 -4.48973e-011 1.44186e-027   
     length 0.594811   
     axis -9.20027e-016 -90 -90   XYZ
    dof rx rz
    limits (-90.0 90.0)
           (-45.0 45.0)
  end
  begin
     id 29
     name rfingers
     direction -1 -4.48963e-011 2.88371e-027   
     length 0.479552   
     axis -1.84005e-015 -90 -90   XYZ
    dof rx
    limits (0.0 90.0)
  end
  begin
     id 30
     name rthumb
     direction -0.707107 -6.34932e-011 0.707107   
     length 0.688544   
     axis -90 -45 -2.85299e-015   XYZ
    dof rx rz
    limits (-45.0 45.0)
           (-45.0 45.0)
  end
:hierarchy
  begin
    root lhipjoint rhipjoint lowerback
    lhipjoint lfemur
    lfemur ltibia
    ltibia lfoot
    lfoot ltoes
    rhipjoint rfemur
    rfemur rtibia
    rtibia rfoot
    rfoot rtoes
    lowerback upperback
    upperback thorax
    thorax lowerneck lclavicle rclavicle
    lowerneck upperneck
    upperneck head
    lclavicle lhumerus
    lhumerus lradius
    lradius lwrist
    lwrist lhand lthumb
    lhand lfingers
    rclavicle rhumerus
    rhumerus rradius
    rradius rwrist
    rwrist rhand rthumb
    rhand rfingers
  end

#!OML:ASF E:\acrobat2\Project_11_07_03\Capture day 1\Session 1\Acrobat.ASF
:FULLY-SPECIFIED
:DEGREES
1251
root 11.9987 16.262 -18.867 -1052.09 1.04484 2.47299
lowerback 33.4848 -0.925402 -4.66156
upperback 8.38967 -2.67757 -0.570771
thorax -7.64717 -1.2019 2.82517
lowerneck 0.0721818 -0.759578 -0.234359
upperneck -23.4749 -0.0211876 5.39732
head -7.17131 -0.467268 1.80908
rclavicle -3.65764e-014 -3.97569e-015
rhumerus 35.9779 -2.27391 -48.0143
rradius 70.8307
rwrist -16.6696
rhand -25.0979 -35.4552
rfingers 7.12502
rthumb 1.41704 -425.43
lclavicle -3.65764e-014 -3.97569e-015
lhumerus 28.7272 -40.835 35.9466
lradius 31.4206
lwrist 17.8317
lhand -13.8505 -15.1802
lfingers 7.12502
lthumb 12.2732 14.4396
rfemur -53.2314 0.229444 24.19
rtibia 67.1814
rfoot 333.92 1.52774
rtoes -0.120794
lfemur 128.228 174.026 162.016
ltibia 67.0436
lfoot 337.986 -7.65242
ltoes 23.1661
1252
root 11.9713 16.5231 -18.8916 -1051.59 0.786499 2.19574
lowerback 31.2314 -1.01427 -4.47308
upperback 8.47129 -2.6398 -0.800248
thorax -7.321 -1.19374 2.6324
lowerneck -0.04199 -0.77433 -0.356235
upperneck -23.3827 -0.0409384 5.4753
head -7.1191 -0.469148 1.85438
rclavicle -3.97569e-015 -1.07344e-014
rhumerus 34.4305 0.0957955 -48.69
rradius 70.7626
rwrist -13.764
rhand -23.4823 -34.1015
rfingers 7.12502
rthumb 2.97734 -424.06
lclavicle -3.97569e-015 -1.07344e-014
lhumerus 25.1572 -42.3815 38.7305
lradius 32.2694
lwrist 16.2581
lhand -10.9035 -15.5313
lfingers 7.12502
lthumb 15.1135 13.8969
rfemur -52.928 0.147888 24.2854
rtibia 64.6421
rfoot 337.052 1.62052
rtoes -0.370239
lfemur 128.345 174.161 162.311
ltibia 64.9617
lfoot 339.558 -5.09897
ltoes 22.421
1253
root 11.9405 16.8054 -18.9016 -1051.38 0.449071 1.87445
lowerback 29.7401 -1.01799 -4.35597
upperback 8.15673 -2.57131 -0.922589
thorax -6.99605 -1.17327 2.3634
lowerneck -0.12591 -0.772272 -0.450624
upperneck -23.3858 -0.0301893 5.55264
head -7.10479 -0.460445 1.89467
rclavicle -7.15625e-015 -4.77083e-015
rhumerus 32.7245 2.43405 -49.4944
rradius 70.6541
rwrist -10.9548
rhand -21.9895 -32.5402
rfingers 7.12502
rthumb 4.41886 -422.474
lclavicle -7.15625e-015 -4.77083e-015
lhumerus 21.4176 -43.6621 41.6276
lradius 33.0223
lwrist 14.8938
lhand -8.10626 -15.8847
lfingers 7.12502
lthumb 17.8066 13.32
rfemur -52.0862 0.164663 24.3599
rtibia 61.7812
rfoot 340.557 1.65444
rtoes -0.709
lfemur 128.994 174.318 162.748
ltibia 62.602
lfoot 341.333 -2.52865
ltoes 22.2597
1254
root 11.9063 17.1054 -18.8988 -1051.44 0.0849605 1.55004
lowerback 28.6317 -0.989922 -4.26389
upperback 7.90956 -2.48793 -1.07081
thorax -6.7643 -1.14201 2.08921
lowerneck -0.19878 -0.759989 -0.467343
upperneck -23.472 -0.0021148 5.59856
head -7.1211 -0.448985 1.91186
rclavicle 1.19271e-014 -2.78299e-015
rhumerus 30.8123 4.71989 -50.4533
rradius 70.5606
rwrist -8.51337
rhand -20.7997 -30.8802
rfingers 7.12502
rthumb 5.56773 -420.787
lclavicle 1.19271e-014 -2.78299e-015
lhumerus 17.6462 -44.6984 44.5209
lradius 33.6088
lwrist 13.8095
lhand -5.79231 -16.2179
lfingers 7.12502
lthumb 20.032 12.7695
rfemur -50.7603 0.205897 24.4027
rtibia 58.6514
rfoot 344.379 1.5622
rtoes -1.1684
lfemur 130.107 174.562 163.29
ltibia 59.9886
lfoot 343.251 0.0535046
ltoes 22.8363
1255
root 11.8691 17.4171 -18.8873 -1051.67 -0.290811 1.2307
lowerback 27.7755 -0.941328 -4.18975
upperback 7.71455 -2.39451 -1.23815
thorax -6.58783 -1.10381 1.81062
lowerneck -0.286833 -0.747801 -0.405546
upperneck -23.6023 0.0254414 5.60844
head -7.14998 -0.442267 1.90452
rclavicle -3.18055e-015 3.18055e-015
rhumerus 28.6531 6.94801 -51.5943
rradius 70.5223
rwrist -6.57919
rhand -19.9488 -29.255
rfingers 7.12502
rthumb 6.38927 -419.139
lclavicle -3.18055e-015 3.18055e-015
lhumerus 13.9369 -45.5284 47.3581
lradius 33.9639
lwrist 13.0279
lhand -4.07738 -16.4862
lfingers 7.12502
lthumb 21.6797 12.32
rfemur -49.1231 0.269001 24.4217
rtibia 55.3333
rfoot 348.44 1.29138
rtoes -1.76574
lfemur 131.508 174.907 163.906
ltibia 57.1871
lfoot 345.188 2.63928
ltoes 24.4828
1256
root 11.8301 17.7315 -18.8726 -1051.84 -0.644987 0.9289
lowerback 26.9006 -0.902722 -4.09446
upperback 7.52744 -2.30697 -1.41975
thorax -6.38875 -1.06845 1.50849
lowerneck -0.411799 -0.748896 -0.282171
upperneck -23.7314 0.0325064 5.59466
head -7.17186 -0.448627 1.87987
rclavicle -1.27222e-014 -1.43125e-014
rhumerus 26.2311 9.10783 -52.9599
rradius 70.5281
rwrist -5.17668
rhand -19.3978 -27.7809
rfingers 7.12502
rthumb 6.9212 -417.648
lclavicle -1.27222e-014 -1.43125e-014
lhumerus 10.3329 -46.2089 50.1155
lradius 34.0652
lwrist 12.5439
lhand -3.00137 -16.6557
lfingers 7.12502
lthumb 22.7127 12.0275
rfemur -47.5138 0.328339 24.4287
rtibia 51.9586
rfoot 352.635 0.825878
rtoes -2.48552
lfemur 132.863 175.38 164.548
ltibia 54.3157
lfoot 346.919 5.23892
ltoes 27.3261
1257
root 11.7901 18.0442 -18.8555 -1051.94 -0.951065 0.645555
lowerback 25.9671 -0.881988 -3.94455
upperback 7.33349 -2.22559 -1.60898
thorax -6.16488 -1.03608 1.17058
lowerneck -0.587183 -0.778776 -0.17041
upperneck -23.7905 0.002052 5.62132
head -7.16041 -0.473825 1.87123
rclavicle -3.26007e-014 -4.53229e-014
rhumerus 23.5712 11.1677 -54.5529
rradius 70.5137
rwrist -4.27864
rhand -19.0572 -26.5857
rfingers 7.12502
rthumb 7.24995 -416.441
lclavicle -3.26007e-014 -4.53229e-014
lhumerus 6.81788 -46.7504 52.8327
lradius 33.9181
lwrist 12.2373
lhand -2.52877 -16.7331
lfingers 7.12502
lthumb 23.1661 11.8938
rfemur -45.9637 0.353554 24.4382
rtibia 48.5489
rfoot 356.837 0.18324
rtoes -3.18617
lfemur 134.146 176.002 165.202
ltibia 51.4163
lfoot 348.166 7.81371
ltoes 30.9749
1258
root 11.7504 18.3483 -18.8407 -1051.8 -1.32357 0.319181
lowerback 24.7903 -0.829776 -3.75638
upperback 7.07938 -2.08711 -1.80108
thorax -5.88318 -0.977175 0.790258
lowerneck -0.771005 -0.833685 -0.100871
upperneck -23.7743 -0.0628765 5.68367
head -7.12109 -0.51346 1.8821
rclavicle -2.14687e-014 -7.95139e-015
rhumerus 20.7119 13.0862 -56.3483
rradius 70.4189
rwrist -3.81445
rhand -18.7954 -25.7624
rfingers 7.12502
rthumb 7.50261 -415.609
lclavicle -2.14687e-014 -7.95139e-015
lhumerus 3.39975 -47.218 55.5303
lradius 33.5042
lwrist 12.0572
lhand -2.61198 -16.7412
lfingers 7.12502
lthumb 23.0863 11.8958
rfemur -44.7482 0.458646 24.4839
rtibia 45.2605
rfoot 360.927 -0.551876
rtoes -3.647
lfemur 135.147 176.625 165.853
ltibia 48.6222
lfoot 348.661 10.2622
ltoes 34.8017
1259
root 11.7107 18.643 -18.8252 -1051.54 -1.65162 -0.00525696
lowerback 23.4864 -0.782396 -3.5006
upperback 6.78344 -1.93537 -1.9825
thorax -5.57514 -0.911389 0.383171
lowerneck -0.921503 -0.899973 -0.0815602
upperneck -23.6975 -0.145399 5.76271
head -7.0666 -0.557616 1.90702
rclavicle -2.78299e-014 -3.89618e-014
rhumerus 17.7711 14.8191 -58.2981
rradius 70.1303
rwrist -3.6938
rhand -18.5361 -25.2755
rfingers 7.12502
rthumb 7.75293 -415.113
lclavicle -2.78299e-014 -3.89618e-014
lhumerus 0.0596591 -47.6142 58.2333
lradius 32.8402
lwrist 11.9433
lhand -3.12629 -16.6916
lfingers 7.12502
lthumb 22.5928 12.0063
rfemur -43.6922 0.551604 24.5502
rtibia 42.0819
rfoot 364.695 -1.39136
rtoes -3.79199
lfemur 136.015 177.317 166.49
ltibia 45.9494
lfoot 348.376 12.3646
ltoes 38.1314
1260
root 11.6715 18.9267 -18.8093 -1051.2 -1.90855 -0.322315
lowerback 22.0969 -0.748143 -3.16661
upperback 6.45151 -1.78312 -2.1477
thorax -5.25207 -0.844473 -0.0456136
lowerneck -1.00932 -0.967609 -0.090165
upperneck -23.59 -0.235431 5.82118
head -7.01254 -0.601244 1.93004
rclavicle -1.43125e-014 -3.18055e-014
rhumerus 14.8683 16.3371 -60.3012
rradius 69.5785
rwrist -3.84896
rhand -18.1989 -25.0355
rfingers 7.12502
rthumb 8.07836 -414.861
lclavicle -1.43125e-014 -3.18055e-014
lhumerus -3.20597 -47.9312 60.9278
lradius 31.978
lwrist 11.8775
lhand -3.94546 -16.5853
lfingers 7.12502
lthumb 21.8063 12.2062
rfemur -42.7643 0.633144 24.6275
rtibia 39.0948
rfoot 367.882 -2.31614
rtoes -3.7588
lfemur 136.793 178.023 167.094
ltibia 43.4278
lfoot 347.552 13.9267
ltoes 40.5034
1261
root 11.6324 19.1996 -18.7933 -1050.88 -2.09586 -0.620939
lowerback 20.7295 -0.718696 -2.79105
upperback 6.10177 -1.63436 -2.28862
thorax -4.9463 -0.777866 -0.464154
lowerneck -1.03494 -1.02705 -0.117495
upperneck -23.4484 -0.323136 5.83823
head -6.95823 -0.638696 1.94224
rclavicle 3.18055e-015 0
rhumerus 11.9863 17.6299 -62.3141
rradius 68.8213
rwrist -4.15076
rhand -17.7211 -24.982
rfingers 7.12502
rthumb 8.53951 -414.789
lclavicle 3.18055e-015 0
lhumerus -6.40606 -48.1642 63.5996
lradius 30.9875
lwrist 11.8718
lhand -5.00282 -16.4336
lfingers 7.12502
lthumb 20.7907 12.4726
rfemur -41.8692 0.723775 24.6942
rtibia 36.3706
rfoot 370.246 -3.30035
rtoes -3.63885
lfemur 137.592 178.647 167.623
ltibia 41.0323
lfoot 346.657 14.9082
ltoes 41.7576
1262
root 11.5929 19.4614 -18.7778 -1050.65 -2.22833 -0.881535
lowerback 19.4612 -0.684842 -2.42239
upperback 5.75551 -1.49024 -2.40201
thorax -4.67442 -0.712153 -0.841383
lowerneck -1.00249 -1.07139 -0.171883
upperneck -23.2581 -0.398515 5.82026
head -6.89846 -0.664713 1.94641
rclavicle 8.74653e-015 2.38542e-015
rhumerus 9.15763 18.7048 -64.2717
rradius 67.8791
rwrist -4.51157
rhand -17.1279 -25.0858
rfingers 7.12502
rthumb 9.11191 -414.869
lclavicle 8.74653e-015 2.38542e-015
lhumerus -9.54451 -48.2613 66.239
lradius 29.9347
lwrist 11.8865
lhand -6.02165 -16.2061
lfingers 7.12502
lthumb 19.8115 12.8042
rfemur -40.9363 0.832936 24.7214
rtibia 33.9779
rfoot 371.632 -4.31194
rtoes -3.40816
lfemur 138.5 179.107 168.02
ltibia 38.7283
lfoot 346.15 15.4284
ltoes 41.877
1263
root 11.5524 19.7123 -18.7635 -1050.57 -2.31551 -1.08893
lowerback 18.3551 -0.643825 -2.09772
upperback 5.4343 -1.3544 -2.48433
thorax -4.44834 -0.649287 -1.15261
lowerneck -0.914561 -1.10088 -0.256334
upperneck -23.0286 -0.462115 5.76626
head -6.83597 -0.679621 1.94305
rclavicle 1.59028e-015 -2.38542e-015
rhumerus 6.38392 19.5883 -66.1325
rradius 66.7949
rwrist -4.86125
rhand -16.4723 -25.3238
rfingers 7.12502
rthumb 9.7445 -415.078
lclavicle 1.59028e-015 -2.38542e-015
lhumerus -12.6113 -48.1524 68.8245
lradius 28.8737
lwrist 11.88
lhand -6.85074 -15.924
lfingers 7.12502
lthumb 19.0144 13.1666
rfemur -39.9038 0.964101 24.6877
rtibia 31.9417
rfoot 372.014 -5.31875
rtoes -3.15163
lfemur 139.573 179.367 168.252
ltibia 36.5052
lfoot 346.249 15.5876
ltoes 41.034
1264
root 11.5103 19.9515 -18.7512 -1050.69 -2.36479 -1.2393
lowerback 17.4454 -0.596925 -1.83721
upperback 5.1506 -1.23029 -2.53316
thorax -4.27606 -0.591185 -1.38452
lowerneck -0.777791 -1.12062 -0.371206
upperneck -22.7722 -0.5214 5.6746
head -6.77349 -0.687327 1.93237
rclavicle 1.59028e-014 4.85035e-014
rhumerus 3.62853 20.3091 -67.9044
rradius 65.6157
rwrist -5.1377
rhand -15.8283 -25.6461
rfingers 7.12502
rthumb 10.3658 -415.371
lclavicle 1.59028e-014 4.85035e-014
lhumerus -15.5876 -47.8122 71.3225
lradius 27.8424
lwrist 11.8762
lhand -7.3155 -15.5349
lfingers 7.12502
lthumb 18.5674 13.599
rfemur -38.745 1.12833 24.5853
rtibia 30.2448
rfoot 371.52 -6.27206
rtoes -3.00709
lfemur 140.832 179.434 168.319
ltibia 34.3733
lfoot 346.895 15.3964
ltoes 39.5717
